<mxfile host="app.diagrams.net" modified="2023-09-21T11:15:52.522Z" agent="Mozilla/5.0 (Windows NT 10.0; Win64; x64) AppleWebKit/537.36 (KHTML, like Gecko) Chrome/116.0.0.0 Safari/537.36" etag="W1vzHB-6Vvqwb8xhjik0" version="21.8.0" type="github">
  <diagram name="Page-1" id="VDZbJDNXe66LChUHXBfJ">
    <mxGraphModel dx="1018" dy="540" grid="1" gridSize="10" guides="1" tooltips="1" connect="1" arrows="1" fold="1" page="1" pageScale="1" pageWidth="850" pageHeight="1100" math="0" shadow="0">
      <root>
        <mxCell id="0" />
        <mxCell id="1" parent="0" />
        <mxCell id="cI-3nXPEl3pSKGc8Bn7F-7" style="edgeStyle=orthogonalEdgeStyle;rounded=0;orthogonalLoop=1;jettySize=auto;html=1;exitX=1;exitY=0.5;exitDx=0;exitDy=0;" edge="1" parent="1" source="cI-3nXPEl3pSKGc8Bn7F-1" target="cI-3nXPEl3pSKGc8Bn7F-5">
          <mxGeometry relative="1" as="geometry" />
        </mxCell>
        <mxCell id="cI-3nXPEl3pSKGc8Bn7F-1" value="&lt;font style=&quot;font-size: 18px;&quot;&gt;Start&lt;/font&gt;" style="ellipse;whiteSpace=wrap;html=1;fillColor=#d5e8d4;strokeColor=#82b366;" vertex="1" parent="1">
          <mxGeometry x="120" y="110" width="150" height="90" as="geometry" />
        </mxCell>
        <mxCell id="cI-3nXPEl3pSKGc8Bn7F-14" value="" style="edgeStyle=orthogonalEdgeStyle;rounded=0;orthogonalLoop=1;jettySize=auto;html=1;entryX=0.996;entryY=0.093;entryDx=0;entryDy=0;entryPerimeter=0;" edge="1" parent="1" source="cI-3nXPEl3pSKGc8Bn7F-3" target="cI-3nXPEl3pSKGc8Bn7F-11">
          <mxGeometry relative="1" as="geometry">
            <Array as="points">
              <mxPoint x="330" y="423" />
              <mxPoint x="330" y="423" />
            </Array>
          </mxGeometry>
        </mxCell>
        <mxCell id="cI-3nXPEl3pSKGc8Bn7F-3" value="&lt;font style=&quot;font-size: 24px;&quot;&gt;Mask-R CNN Architecture&lt;/font&gt;" style="shape=cylinder3;whiteSpace=wrap;html=1;boundedLbl=1;backgroundOutline=1;size=15;fillColor=#f8cecc;strokeColor=#b85450;" vertex="1" parent="1">
          <mxGeometry x="363.75" y="320" width="197.5" height="200" as="geometry" />
        </mxCell>
        <mxCell id="cI-3nXPEl3pSKGc8Bn7F-8" style="edgeStyle=orthogonalEdgeStyle;rounded=0;orthogonalLoop=1;jettySize=auto;html=1;exitX=0.5;exitY=1;exitDx=0;exitDy=0;" edge="1" parent="1" source="cI-3nXPEl3pSKGc8Bn7F-5" target="cI-3nXPEl3pSKGc8Bn7F-3">
          <mxGeometry relative="1" as="geometry" />
        </mxCell>
        <mxCell id="cI-3nXPEl3pSKGc8Bn7F-5" value="&lt;font style=&quot;font-size: 18px;&quot;&gt;Take Image from User&lt;/font&gt;" style="rounded=0;whiteSpace=wrap;html=1;fillColor=#fff2cc;strokeColor=#d6b656;" vertex="1" parent="1">
          <mxGeometry x="390" y="115" width="145" height="80" as="geometry" />
        </mxCell>
        <mxCell id="cI-3nXPEl3pSKGc8Bn7F-9" value="&lt;font style=&quot;font-size: 18px;&quot;&gt;Dashboard&lt;/font&gt;" style="swimlane;fontStyle=0;childLayout=stackLayout;horizontal=1;startSize=30;horizontalStack=0;resizeParent=1;resizeParentMax=0;resizeLast=0;collapsible=1;marginBottom=0;whiteSpace=wrap;html=1;fillColor=#ffe6cc;strokeColor=#d79b00;" vertex="1" parent="1">
          <mxGeometry x="50" y="360" width="200" height="120" as="geometry" />
        </mxCell>
        <mxCell id="cI-3nXPEl3pSKGc8Bn7F-10" value="&lt;font style=&quot;font-size: 18px;&quot;&gt;Number of Items&lt;/font&gt;" style="text;strokeColor=#d79b00;fillColor=#ffe6cc;align=left;verticalAlign=middle;spacingLeft=4;spacingRight=4;overflow=hidden;points=[[0,0.5],[1,0.5]];portConstraint=eastwest;rotatable=0;whiteSpace=wrap;html=1;" vertex="1" parent="cI-3nXPEl3pSKGc8Bn7F-9">
          <mxGeometry y="30" width="200" height="30" as="geometry" />
        </mxCell>
        <mxCell id="cI-3nXPEl3pSKGc8Bn7F-11" value="&lt;font style=&quot;font-size: 18px;&quot;&gt;Predicted Items&lt;/font&gt;" style="text;strokeColor=#d79b00;fillColor=#ffe6cc;align=left;verticalAlign=middle;spacingLeft=4;spacingRight=4;overflow=hidden;points=[[0,0.5],[1,0.5]];portConstraint=eastwest;rotatable=0;whiteSpace=wrap;html=1;" vertex="1" parent="cI-3nXPEl3pSKGc8Bn7F-9">
          <mxGeometry y="60" width="200" height="30" as="geometry" />
        </mxCell>
        <mxCell id="cI-3nXPEl3pSKGc8Bn7F-12" value="&lt;font style=&quot;font-size: 18px;&quot;&gt;Train the Model&lt;/font&gt;" style="text;strokeColor=#d79b00;fillColor=#ffe6cc;align=left;verticalAlign=middle;spacingLeft=4;spacingRight=4;overflow=hidden;points=[[0,0.5],[1,0.5]];portConstraint=eastwest;rotatable=0;whiteSpace=wrap;html=1;" vertex="1" parent="cI-3nXPEl3pSKGc8Bn7F-9">
          <mxGeometry y="90" width="200" height="30" as="geometry" />
        </mxCell>
        <mxCell id="cI-3nXPEl3pSKGc8Bn7F-19" value="" style="endArrow=none;html=1;rounded=0;entryX=0;entryY=0.671;entryDx=0;entryDy=0;entryPerimeter=0;" edge="1" parent="1" target="cI-3nXPEl3pSKGc8Bn7F-12">
          <mxGeometry width="50" height="50" relative="1" as="geometry">
            <mxPoint x="20" y="470" as="sourcePoint" />
            <mxPoint x="60" y="400" as="targetPoint" />
            <Array as="points">
              <mxPoint x="30" y="470" />
            </Array>
          </mxGeometry>
        </mxCell>
        <mxCell id="cI-3nXPEl3pSKGc8Bn7F-20" value="" style="endArrow=none;html=1;rounded=0;" edge="1" parent="1">
          <mxGeometry width="50" height="50" relative="1" as="geometry">
            <mxPoint x="20" y="470" as="sourcePoint" />
            <mxPoint x="20" y="320" as="targetPoint" />
          </mxGeometry>
        </mxCell>
        <mxCell id="cI-3nXPEl3pSKGc8Bn7F-21" value="" style="endArrow=none;html=1;rounded=0;" edge="1" parent="1">
          <mxGeometry width="50" height="50" relative="1" as="geometry">
            <mxPoint x="20" y="320" as="sourcePoint" />
            <mxPoint x="280" y="320" as="targetPoint" />
          </mxGeometry>
        </mxCell>
        <mxCell id="cI-3nXPEl3pSKGc8Bn7F-22" value="" style="endArrow=none;html=1;rounded=0;" edge="1" parent="1">
          <mxGeometry width="50" height="50" relative="1" as="geometry">
            <mxPoint x="280" y="320" as="sourcePoint" />
            <mxPoint x="280" y="360" as="targetPoint" />
          </mxGeometry>
        </mxCell>
        <mxCell id="cI-3nXPEl3pSKGc8Bn7F-23" value="" style="endArrow=classic;html=1;rounded=0;" edge="1" parent="1">
          <mxGeometry width="50" height="50" relative="1" as="geometry">
            <mxPoint x="280" y="360" as="sourcePoint" />
            <mxPoint x="363.75" y="360" as="targetPoint" />
          </mxGeometry>
        </mxCell>
        <mxCell id="cI-3nXPEl3pSKGc8Bn7F-26" value="List" style="swimlane;fontStyle=0;childLayout=stackLayout;horizontal=1;startSize=30;horizontalStack=0;resizeParent=1;resizeParentMax=0;resizeLast=0;collapsible=1;marginBottom=0;whiteSpace=wrap;html=1;" vertex="1" parent="1">
          <mxGeometry x="670" y="370" width="140" height="120" as="geometry" />
        </mxCell>
        <mxCell id="cI-3nXPEl3pSKGc8Bn7F-27" value="Item 1" style="text;strokeColor=none;fillColor=none;align=left;verticalAlign=middle;spacingLeft=4;spacingRight=4;overflow=hidden;points=[[0,0.5],[1,0.5]];portConstraint=eastwest;rotatable=0;whiteSpace=wrap;html=1;" vertex="1" parent="cI-3nXPEl3pSKGc8Bn7F-26">
          <mxGeometry y="30" width="140" height="30" as="geometry" />
        </mxCell>
        <mxCell id="cI-3nXPEl3pSKGc8Bn7F-28" value="Item 2" style="text;strokeColor=none;fillColor=none;align=left;verticalAlign=middle;spacingLeft=4;spacingRight=4;overflow=hidden;points=[[0,0.5],[1,0.5]];portConstraint=eastwest;rotatable=0;whiteSpace=wrap;html=1;" vertex="1" parent="cI-3nXPEl3pSKGc8Bn7F-26">
          <mxGeometry y="60" width="140" height="30" as="geometry" />
        </mxCell>
        <mxCell id="cI-3nXPEl3pSKGc8Bn7F-29" value="Item 3" style="text;strokeColor=none;fillColor=none;align=left;verticalAlign=middle;spacingLeft=4;spacingRight=4;overflow=hidden;points=[[0,0.5],[1,0.5]];portConstraint=eastwest;rotatable=0;whiteSpace=wrap;html=1;" vertex="1" parent="cI-3nXPEl3pSKGc8Bn7F-26">
          <mxGeometry y="90" width="140" height="30" as="geometry" />
        </mxCell>
      </root>
    </mxGraphModel>
  </diagram>
</mxfile>
